<svg width="367" height="462" viewBox="0 0 367 462" fill="none" xmlns="http://www.w3.org/2000/svg">
<path d="M366.65 148.394V420.314C366.65 443.072 348.2 461.521 325.443 461.521H42.1428C19.3851 461.521 0.935608 443.072 0.935608 420.314V41.2072C0.935608 18.4495 19.3851 0 42.1428 0H218.507C223.191 0 227.765 1.06315 231.906 3.05552C235.023 4.55443 362.349 132.249 363.862 135.567C365.683 139.557 366.65 143.926 366.65 148.394Z" fill="#3051D3" fill-opacity="0.5"/>
<path d="M187.51 154.527H60.0762C55.8092 154.527 52.3499 151.068 52.3499 146.801C52.3499 142.534 55.8092 139.074 60.0762 139.074H187.51C191.777 139.074 195.236 142.534 195.236 146.801C195.236 151.068 191.777 154.527 187.51 154.527Z" fill="#3051D3"/>
<path d="M187.51 339.96H60.0762C55.8092 339.96 52.3499 336.5 52.3499 332.233C52.3499 327.966 55.8092 324.507 60.0762 324.507H187.51C191.777 324.507 195.236 327.966 195.236 332.233C195.236 336.5 191.777 339.96 187.51 339.96Z" fill="#3051D3"/>
<path d="M288.776 216.338H58.0159C53.7489 216.338 50.2895 212.879 50.2895 208.612C50.2895 204.345 53.7489 200.885 58.0159 200.885H288.776C293.043 200.885 296.503 204.345 296.503 208.612C296.503 212.879 293.043 216.338 288.776 216.338Z" fill="#3051D3"/>
<path d="M288.776 278.149H58.0159C53.7489 278.149 50.2895 274.69 50.2895 270.423C50.2895 266.156 53.7489 262.696 58.0159 262.696H288.776C293.043 262.696 296.503 266.156 296.503 270.423C296.503 274.69 293.043 278.149 288.776 278.149Z" fill="#3051D3"/>
<path d="M363.879 135.613H259.181C243.801 135.613 231.325 123.107 231.325 107.695V2.80209C234.663 4.30616 237.743 6.42833 240.381 9.0759L357.626 126.568C360.252 129.205 362.375 132.275 363.879 135.613Z" fill="#3051D3"/>
</svg>
