<svg width="270" height="268" viewBox="0 0 270 268" fill="none" xmlns="http://www.w3.org/2000/svg">
<g clip-path="url(#clip0)">
<path d="M265.151 43.9081V248.131H181.782V43.9081H265.151ZM242.359 203.448C242.359 193.842 234.572 186.054 224.966 186.054C215.36 186.054 207.573 193.842 207.573 203.448C207.573 213.054 215.36 220.841 224.966 220.841C234.572 220.841 242.359 213.054 242.359 203.448Z" fill="#3051D3" fill-opacity="0.5"/>
<path d="M224.966 220.841C234.572 220.841 242.359 213.054 242.359 203.448C242.359 193.842 234.572 186.054 224.966 186.054C215.36 186.054 207.573 193.842 207.573 203.448C207.573 213.054 215.36 220.841 224.966 220.841Z" fill="#3051D3" fill-opacity="0.5"/>
<path d="M181.782 43.9081V248.131H88.2177V17.818H181.782V43.9081ZM152.393 203.448C152.393 193.842 144.606 186.054 135 186.054C125.394 186.054 117.607 193.842 117.607 203.448C117.607 213.054 125.394 220.841 135 220.841C144.606 220.841 152.393 213.054 152.393 203.448Z" fill="#3051D3" fill-opacity="0.5"/>
<path d="M135 220.841C144.606 220.841 152.393 213.054 152.393 203.448C152.393 193.842 144.606 186.054 135 186.054C125.394 186.054 117.607 193.842 117.607 203.448C117.607 213.054 125.394 220.841 135 220.841Z" fill="#3051D3" fill-opacity="0.5"/>
<path d="M88.2177 43.9081V248.131H4.84973V43.9081H88.2177ZM62.4278 203.448C62.4278 193.842 54.6404 186.054 45.0344 186.054C35.4285 186.054 27.641 193.842 27.641 203.448C27.641 213.054 35.4285 220.841 45.0344 220.841C54.6404 220.841 62.4278 213.054 62.4278 203.448Z" fill="#3051D3" fill-opacity="0.5"/>
<path d="M45.0345 220.841C54.6406 220.841 62.4278 213.054 62.4278 203.448C62.4278 193.842 54.6406 186.054 45.0345 186.054C35.4283 186.054 27.6411 193.842 27.6411 203.448C27.6411 213.054 35.4283 220.841 45.0345 220.841Z" fill="#3051D3" fill-opacity="0.5"/>
<path d="M152.993 64.0004H117.007C113.694 64.0004 111.009 61.3152 111.009 58.0027C111.009 54.6901 113.694 52.0049 117.007 52.0049H152.993C156.306 52.0049 158.991 54.6901 158.991 58.0027C158.991 61.3152 156.306 64.0004 152.993 64.0004Z" fill="#3051D3"/>
<path d="M152.993 105.985H117.007C113.694 105.985 111.009 103.299 111.009 99.9869C111.009 96.6743 113.694 93.9891 117.007 93.9891H152.993C156.306 93.9891 158.991 96.6743 158.991 99.9869C158.991 103.299 156.306 105.985 152.993 105.985Z" fill="#3051D3"/>
<path d="M152.993 147.969H117.007C113.694 147.969 111.009 145.284 111.009 141.971C111.009 138.659 113.694 135.973 117.007 135.973H152.993C156.306 135.973 158.991 138.659 158.991 141.971C158.991 145.284 156.306 147.969 152.993 147.969Z" fill="#3051D3"/>
<path d="M60.3287 85.5921H31.5397C28.2271 85.5921 25.5419 82.9069 25.5419 79.5943C25.5419 76.2818 28.2271 73.5966 31.5397 73.5966H60.3287C63.6413 73.5966 66.3265 76.2818 66.3265 79.5943C66.3265 82.9069 63.6407 85.5921 60.3287 85.5921Z" fill="#3051D3"/>
<path d="M60.3287 122.778H31.5397C28.2271 122.778 25.5419 120.093 25.5419 116.78C25.5419 113.468 28.2271 110.783 31.5397 110.783H60.3287C63.6413 110.783 66.3265 113.468 66.3265 116.78C66.3265 120.093 63.6407 122.778 60.3287 122.778Z" fill="#3051D3"/>
<path d="M60.3287 159.964H31.5397C28.2271 159.964 25.5419 157.279 25.5419 153.967C25.5419 150.654 28.2271 147.969 31.5397 147.969H60.3287C63.6413 147.969 66.3265 150.654 66.3265 153.967C66.3265 157.279 63.6407 159.964 60.3287 159.964Z" fill="#3051D3"/>
<path d="M265.151 37.0109H188.98V17.818C188.98 14.5192 185.081 13.0199 181.782 13.0199H88.2177C84.9189 13.0199 81.0203 14.5192 81.0203 17.818V37.0109H4.84973C1.55095 37.0109 0.0516554 40.6093 0.0516554 43.9081V248.131C-0.307669 250.422 1.25821 252.57 3.54905 252.929C3.98012 252.997 4.41923 252.997 4.84973 252.929H265.151C267.442 253.288 269.59 251.722 269.949 249.432C270.017 249.001 270.017 248.561 269.949 248.131V43.9081C269.949 40.6093 268.45 37.0109 265.151 37.0109ZM12.0466 49.0058H81.0203V240.933H12.0466V49.0058ZM93.0164 25.0154H176.985V240.934H93.0164V25.0154ZM257.953 240.934H188.98V49.0058H257.953V240.934V240.934Z" fill="#3051D3"/>
<path d="M238.461 85.5921H209.672C206.359 85.5921 203.674 82.9069 203.674 79.5943C203.674 76.2818 206.359 73.5966 209.672 73.5966H238.461C241.773 73.5966 244.459 76.2818 244.459 79.5943C244.459 82.9069 241.773 85.5921 238.461 85.5921Z" fill="#3051D3"/>
<path d="M238.461 122.778H209.672C206.359 122.778 203.674 120.093 203.674 116.78C203.674 113.468 206.359 110.783 209.672 110.783H238.461C241.773 110.783 244.459 113.468 244.459 116.78C244.459 120.093 241.773 122.778 238.461 122.778Z" fill="#3051D3"/>
<path d="M238.461 159.964H209.672C206.359 159.964 203.674 157.279 203.674 153.967C203.674 150.654 206.359 147.969 209.672 147.969H238.461C241.773 147.969 244.459 150.654 244.459 153.967C244.459 157.279 241.773 159.964 238.461 159.964Z" fill="#3051D3"/>
<path d="M135 226.839C122.082 226.839 111.609 216.366 111.609 203.448C111.609 190.529 122.082 180.057 135 180.057C147.918 180.057 158.391 190.529 158.391 203.448C158.391 216.366 147.919 226.839 135 226.839ZM135 192.052C128.706 192.052 123.604 197.154 123.604 203.448C123.604 209.742 128.707 214.843 135 214.843C141.294 214.843 146.396 209.741 146.396 203.448C146.396 197.154 141.294 192.052 135 192.052Z" fill="#3051D3"/>
<path d="M45.0344 226.839C32.116 226.839 21.6433 216.366 21.6433 203.448C21.6433 190.529 32.116 180.057 45.0344 180.057C57.9529 180.057 68.4256 190.529 68.4256 203.448C68.4256 216.366 57.9529 226.839 45.0344 226.839ZM45.0344 192.052C38.7405 192.052 33.6388 197.154 33.6388 203.448C33.6388 209.742 38.7411 214.843 45.0344 214.843C51.3278 214.843 56.4301 209.741 56.4301 203.448C56.4301 197.154 51.3278 192.052 45.0344 192.052Z" fill="#3051D3"/>
<path d="M224.966 226.839C212.048 226.839 201.575 216.366 201.575 203.448C201.575 190.529 212.048 180.057 224.966 180.057C237.885 180.057 248.357 190.529 248.357 203.448C248.357 216.366 237.885 226.839 224.966 226.839ZM224.966 192.052C218.672 192.052 213.571 197.154 213.571 203.448C213.571 209.742 218.673 214.843 224.966 214.843C231.26 214.843 236.362 209.741 236.362 203.448C236.362 197.154 231.26 192.052 224.966 192.052Z" fill="#3051D3"/>
</g>
<defs>
<clipPath id="clip0">
<rect width="270" height="270" fill="white" transform="translate(0 -2)"/>
</clipPath>
</defs>
</svg>
