<svg width="255" height="359" viewBox="0 0 255 359" fill="none" xmlns="http://www.w3.org/2000/svg">
<path d="M252.362 342.607L224.306 358.528C223.197 359.157 221.839 359.157 220.731 358.528L192.628 342.581C191.519 341.952 190.161 341.952 189.052 342.581L160.954 358.527C159.845 359.156 158.487 359.156 157.378 358.527L129.279 342.581C128.17 341.952 126.812 341.952 125.704 342.581L97.6056 358.527C96.497 359.156 95.1388 359.156 94.0303 358.527L65.9329 342.581C64.8244 341.951 63.4662 341.952 62.3569 342.581L34.2638 358.527C33.1552 359.156 31.7971 359.156 30.6878 358.527L2.63743 342.607C1.50363 341.963 0.803162 340.76 0.803162 339.457V3.62225C0.802461 1.62181 2.42427 0 4.42472 0H250.575C252.575 0 254.197 1.62181 254.197 3.62225V339.458C254.196 340.761 253.496 341.964 252.362 342.607Z" fill="#3051D3" fill-opacity="0.5"/>
<path d="M254.195 3.62506V339.46C254.195 340.765 253.493 341.967 252.363 342.605L236.882 351.392V0.00280762H250.573C252.573 0.00280762 254.195 1.61831 254.195 3.62506Z" fill="#3051D3"/>
<path d="M71.7211 149.382H53.8531C50.8598 149.382 48.433 151.808 48.433 154.802C48.433 157.796 50.8598 160.222 53.8531 160.222H71.7211C74.7144 160.222 77.1411 157.796 77.1411 154.802C77.1411 151.808 74.7144 149.382 71.7211 149.382Z" fill="#3051D3"/>
<path d="M201.145 149.382H97.7991C94.8058 149.382 92.379 151.808 92.379 154.802C92.379 157.796 94.8058 160.222 97.7991 160.222H201.145C204.139 160.222 206.566 157.796 206.566 154.802C206.566 151.808 204.139 149.382 201.145 149.382Z" fill="#3051D3"/>
<path d="M71.7211 179.916H53.8531C50.8598 179.916 48.433 182.343 48.433 185.337C48.433 188.331 50.8598 190.757 53.8531 190.757H71.7211C74.7144 190.757 77.1411 188.331 77.1411 185.337C77.1411 182.343 74.7144 179.916 71.7211 179.916Z" fill="#3051D3"/>
<path d="M201.145 179.916H97.7991C94.8058 179.916 92.379 182.343 92.379 185.337C92.379 188.331 94.8058 190.757 97.7991 190.757H201.145C204.139 190.757 206.566 188.331 206.566 185.337C206.566 182.343 204.139 179.916 201.145 179.916Z" fill="#3051D3"/>
<path d="M71.7211 210.452H53.8531C50.8598 210.452 48.433 212.878 48.433 215.872C48.433 218.866 50.8598 221.292 53.8531 221.292H71.7211C74.7144 221.292 77.1411 218.866 77.1411 215.872C77.1411 212.878 74.7144 210.452 71.7211 210.452Z" fill="#3051D3"/>
<path d="M201.145 210.452H97.7991C94.8058 210.452 92.379 212.878 92.379 215.872C92.379 218.866 94.8058 221.292 97.7991 221.292H201.145C204.139 221.292 206.566 218.866 206.566 215.872C206.566 212.878 204.139 210.452 201.145 210.452Z" fill="#3051D3"/>
<path d="M71.7211 240.986H53.8531C50.8598 240.986 48.433 243.412 48.433 246.406C48.433 249.4 50.8598 251.827 53.8531 251.827H71.7211C74.7144 251.827 77.1411 249.4 77.1411 246.406C77.1411 243.412 74.7144 240.986 71.7211 240.986Z" fill="#3051D3"/>
<path d="M201.145 240.986H97.7991C94.8058 240.986 92.379 243.412 92.379 246.406C92.379 249.4 94.8058 251.827 97.7991 251.827H201.145C204.139 251.827 206.566 249.4 206.566 246.406C206.566 243.412 204.139 240.986 201.145 240.986Z" fill="#3051D3"/>
<path d="M71.7211 271.522H53.8531C50.8598 271.522 48.433 273.949 48.433 276.943C48.433 279.937 50.8598 282.363 53.8531 282.363H71.7211C74.7144 282.363 77.1411 279.937 77.1411 276.943C77.1411 273.949 74.7144 271.522 71.7211 271.522Z" fill="#3051D3"/>
<path d="M201.145 271.522H97.7991C94.8058 271.522 92.379 273.949 92.379 276.943C92.379 279.937 94.8058 282.363 97.7991 282.363H201.145C204.139 282.363 206.566 279.937 206.566 276.943C206.566 273.949 204.139 271.522 201.145 271.522Z" fill="#3051D3"/>
<path d="M193.963 68.4435H120.678C117.685 68.4435 115.258 70.8695 115.258 73.8635C115.258 76.8568 117.685 79.2836 120.678 79.2836H193.963C196.956 79.2836 199.383 76.8575 199.383 73.8635C199.382 70.8702 196.956 68.4435 193.963 68.4435Z" fill="#3051D3"/>
<path d="M175.249 103.215C178.242 103.215 180.669 100.789 180.669 97.7952C180.669 94.8019 178.243 92.3752 175.249 92.3752H120.678C117.685 92.3752 115.258 94.8012 115.258 97.7952C115.258 100.789 117.685 103.215 120.678 103.215H175.249Z" fill="#3051D3"/>
<path d="M175.249 45.9604H120.678C117.685 45.9604 115.258 48.3864 115.258 51.3804C115.258 54.3745 117.685 56.8005 120.678 56.8005H175.249C178.242 56.8005 180.669 54.3745 180.669 51.3804C180.669 48.3864 178.242 45.9604 175.249 45.9604Z" fill="#3051D3"/>
<path d="M86.0116 107.111V107.019C94.1165 104.87 98.6909 98.556 98.6909 89.2837C98.6909 77.2607 91.2333 72.8854 86.0116 70.7875V57.1322C87.137 57.4912 87.9946 57.9322 88.7126 58.3017C89.7279 58.8234 90.6871 59.3156 91.9267 59.3156C95.2601 59.3156 97.3075 55.9135 97.3075 53.4748C97.3075 48.9474 91.3335 46.6265 85.9002 45.8517C85.4016 43.6108 83.2967 41.8698 80.8615 41.8698C78.2728 41.8698 76.1174 43.6788 75.7051 46.0431C67.0295 47.6607 61.9558 53.4777 61.9558 62.081C61.9558 73.0901 69.3076 76.6668 75.6343 78.8895V96.4791C72.6529 95.7464 71.2983 94.1779 70.2367 92.948C69.3209 91.8878 68.0673 90.4357 65.9532 90.4357C62.8737 90.4357 60.5724 93.4795 60.5724 96.2007C60.5724 98.8526 62.6198 101.803 66.05 104.094C68.0722 105.444 71.2485 107.002 75.6567 107.577C75.9028 110.115 78.1431 112.108 80.8615 112.108C83.6536 112.108 86.0116 109.82 86.0116 107.111ZM85.9345 83.9001C87.1076 85.2435 87.6994 86.9993 87.6994 89.5908C87.6994 92.0442 87.1468 93.7901 85.9345 94.9569V83.9001ZM75.7886 66.8076C73.671 65.5806 72.8717 64.1621 72.8717 61.6961C72.8717 60.537 72.8724 58.4328 75.7886 57.2542V66.8076Z" fill="#3051D3"/>
</svg>
