<svg width="512" height="461" viewBox="0 0 512 461" fill="none" xmlns="http://www.w3.org/2000/svg">
<path d="M220.245 270.848C209.277 256.504 201.508 239.976 197.461 222.379C196.219 216.05 193.131 210.23 188.586 205.654C182.578 199.627 179.203 191.465 179.199 182.955V152.662C179.204 147.683 180.373 142.773 182.612 138.326L184.319 134.742C186.558 130.295 187.727 125.385 187.732 120.406V76.801C187.719 68.048 189.43 59.378 192.767 51.286L192.682 51.201H148.65C116.042 51.212 89.61 77.643 89.599 110.252V148.055C89.582 152.346 88.59 156.577 86.698 160.428L85.162 163.5C83.231 167.337 82.237 171.578 82.261 175.873V202.156C82.257 209.514 85.172 216.573 90.368 221.783C94.263 225.738 96.905 230.755 97.963 236.204C101.692 251.418 108.55 265.688 118.102 278.103C118.972 279.389 119.447 280.902 119.467 282.455V305.495C119.472 306.074 119.386 306.65 119.211 307.202C118.859 309.164 117.634 310.859 115.883 311.81L94.294 324.695L33.622 361.047C18.062 370.379 8.539 387.191 8.534 405.335V452.268H93.867V417.792C93.875 396.814 104.888 377.379 122.88 366.592L147.2 352L179.2 332.8L181.931 331.179L183.467 330.24L217.686 309.675C220.307 308.168 221.907 305.36 221.867 302.336V275.797C221.852 274.019 221.286 272.29 220.245 270.848Z" fill="#3051D3" fill-opacity="0.5"/>
<path d="M121.6 352L97.28 366.592C79.288 377.379 68.274 396.814 68.267 417.792V452.267H8.533V405.334C8.538 387.19 18.061 370.378 33.621 361.046L94.293 324.694L121.6 352Z" fill="#3051D3" fill-opacity="0.5"/>
<path d="M157.867 330.24L156.331 331.179L153.6 332.8L121.6 352L94.293 324.693L115.882 311.808C117.633 310.857 118.858 309.162 119.21 307.2H119.466L157.867 330.24Z" fill="white"/>
<path d="M503.467 405.333V452.266H418.134V417.792C418.126 396.814 407.113 377.379 389.121 366.592L364.801 352L332.801 332.8L330.07 331.179L328.534 330.24L294.315 309.675C291.694 308.168 290.094 305.36 290.134 302.336V275.797C290.149 274.019 290.715 272.29 291.755 270.848C302.723 256.504 310.492 239.976 314.539 222.379C315.781 216.05 318.869 210.23 323.414 205.654C329.422 199.627 332.797 191.465 332.801 182.955V152.662C332.796 147.683 331.627 142.773 329.388 138.326L327.681 134.742C325.442 130.295 324.273 125.385 324.268 120.406V76.801C324.281 68.048 322.57 59.378 319.233 51.286L319.318 51.201H363.35C395.958 51.212 422.39 77.643 422.401 110.252V148.055C422.418 152.346 423.41 156.577 425.302 160.428L426.838 163.5C428.769 167.337 429.763 171.578 429.739 175.873V202.156C429.743 209.514 426.828 216.573 421.632 221.783C417.737 225.738 415.095 230.755 414.037 236.204C410.308 251.418 403.45 265.688 393.898 278.103C393.028 279.389 392.553 280.902 392.533 282.455V305.495C392.528 306.074 392.614 306.65 392.789 307.202C393.141 309.164 394.366 310.859 396.117 311.81L417.706 324.695L478.378 361.047C493.939 370.378 503.462 387.189 503.467 405.333Z" fill="#3051D3" fill-opacity="0.5"/>
<path d="M477.867 405.333V452.266H418.134V417.792C418.126 396.814 407.113 377.379 389.121 366.592L364.801 352L332.801 332.8L330.07 331.179L328.534 330.24L294.315 309.675C291.694 308.168 290.094 305.36 290.134 302.336V275.797C290.149 274.019 290.715 272.29 291.755 270.848C302.723 256.504 310.492 239.976 314.539 222.379C315.781 216.05 318.869 210.23 323.414 205.654C329.422 199.627 332.797 191.465 332.801 182.955V152.662C332.796 147.683 331.627 142.773 329.388 138.326L327.681 134.742C325.442 130.295 324.273 125.385 324.268 120.406V76.801C324.281 68.048 322.57 59.378 319.233 51.286L319.318 51.201H338.262C370.669 51.494 396.79 77.843 396.801 110.252V148.055C396.818 152.346 397.81 156.577 399.702 160.428L401.238 163.5C403.169 167.337 404.163 171.578 404.139 175.873V202.156C404.143 209.514 401.228 216.573 396.032 221.783C392.137 225.738 389.495 230.755 388.437 236.204C384.708 251.418 377.85 265.688 368.298 278.103C367.428 279.389 366.953 280.902 366.933 282.455V305.495C366.928 306.074 367.014 306.65 367.189 307.202C367.541 309.164 368.766 310.859 370.517 311.81L392.106 324.695L408.149 334.252L452.778 361.047C468.339 370.378 477.862 387.189 477.867 405.333Z" fill="#3051D3" fill-opacity="0.5"/>
<path d="M503.467 405.333V452.266H477.867V405.333C477.862 387.189 468.339 370.377 452.779 361.045L408.15 334.25L417.707 324.693L478.379 361.045C493.939 370.378 503.462 387.189 503.467 405.333Z" fill="#3051D3" fill-opacity="0.5"/>
<path d="M477.867 405.333V452.266H443.734V417.792C443.726 396.814 432.713 377.379 414.721 366.592L390.401 352L408.15 334.251L452.779 361.046C468.339 370.378 477.862 387.189 477.867 405.333Z" fill="#3051D3" fill-opacity="0.5"/>
<path d="M354.133 330.24L355.669 331.179L358.4 332.8L390.4 352L417.707 324.693L396.118 311.808C394.367 310.857 393.142 309.162 392.79 307.2H392.534L354.133 330.24Z" fill="white"/>
<path d="M358.4 160.341V182.954C358.397 191.464 355.021 199.626 349.013 205.653C344.468 210.229 341.38 216.049 340.138 222.378C336.091 239.976 328.322 256.503 317.354 270.847C316.314 272.289 315.747 274.018 315.733 275.796V302.335C315.705 303.832 316.089 305.308 316.842 306.602L315.733 315.733L256 341.333L196.267 315.733L195.158 306.602C195.912 305.308 196.295 303.832 196.267 302.335V275.796C196.252 274.018 195.686 272.289 194.646 270.847C183.678 256.503 175.909 239.975 171.862 222.378C170.62 216.049 167.532 210.229 162.987 205.653C156.979 199.626 153.604 191.464 153.6 182.954V152.661C153.605 147.682 154.774 142.772 157.013 138.325L158.72 134.741C160.959 130.294 162.128 125.384 162.133 120.405V76.8C162.128 58.693 169.319 41.326 182.122 28.523C194.925 15.72 212.292 8.529 230.399 8.534H281.599C301.328 8.506 320.1 17.036 333.055 31.915L358.4 160.341Z" fill="#3051D3" fill-opacity="0.5"/>
<path d="M243.2 335.872L256 341.333L315.733 315.733L316.842 306.602C316.088 305.308 315.705 303.832 315.733 302.335V275.796C315.748 274.018 316.314 272.289 317.354 270.847C328.322 256.503 336.091 239.975 340.138 222.378C341.38 216.049 344.468 210.229 349.013 205.653C355.021 199.626 358.396 191.464 358.4 182.954V152.661C358.395 147.682 357.226 142.772 354.987 138.325L353.28 134.741C351.041 130.294 349.872 125.384 349.867 120.405V76.8C349.872 58.693 342.681 41.326 329.878 28.523C317.074 15.719 299.708 8.529 281.601 8.534H256C274.107 8.529 291.474 15.72 304.277 28.523C317.081 41.327 324.271 58.693 324.266 76.8V120.405C324.271 125.384 325.44 130.294 327.679 134.741L329.386 138.325C331.625 142.772 332.794 147.682 332.799 152.661V182.954C332.796 191.464 329.42 199.626 323.412 205.653C318.867 210.229 315.779 216.049 314.537 222.378C310.49 239.976 302.721 256.503 291.753 270.847C290.713 272.289 290.146 274.018 290.132 275.796V302.335C290.104 303.832 290.488 305.308 291.241 306.602L290.132 315.733L243.2 335.872Z" fill="#3051D3" fill-opacity="0.5"/>
<path d="M443.733 417.792V452.267H68.267V417.792C68.275 396.814 79.288 377.379 97.28 366.592L153.6 332.8L156.331 331.179H355.67L358.401 332.8L414.721 366.592C432.712 377.378 443.726 396.814 443.733 417.792Z" fill="#3051D3" fill-opacity="0.5"/>
<path d="M418.133 417.792V452.267H68.267V417.792C68.275 396.814 79.288 377.379 97.28 366.592L153.6 332.8L156.331 331.179H330.07L332.801 332.8L389.121 366.592C407.112 377.378 418.126 396.814 418.133 417.792Z" fill="#3051D3" fill-opacity="0.5"/>
<path d="M256 332.8L221.867 366.933L156.331 331.178L192.086 309.674C193.368 308.946 194.43 307.884 195.158 306.602L196.267 307.199L256 332.8Z" fill="white"/>
<path d="M355.669 331.179L290.133 366.934L256 332.8L315.733 307.2L316.842 306.603C317.57 307.886 318.632 308.947 319.914 309.675L355.669 331.179Z" fill="white"/>
<path d="M290.133 452.267H221.867L247.467 384H264.533L290.133 452.267Z" fill="#3051D3" fill-opacity="0.5"/>
<path d="M247.467 384L221.867 452.267L153.6 332.8L156.331 331.179L221.867 366.933L229.205 359.595L247.467 384Z" fill="white"/>
<path d="M282.795 359.595L264.533 384H247.467L229.205 359.595L256 332.8L282.795 359.595Z" fill="#3051D3" fill-opacity="0.5"/>
<path d="M358.4 332.8L290.133 452.267L264.533 384L282.795 359.595L290.133 366.933L355.669 331.179L358.4 332.8Z" fill="white"/>
<path d="M34.133 405.333C34.138 387.189 43.661 370.377 59.221 361.045L119.893 324.693L141.482 311.808C143.233 310.857 144.458 309.162 144.81 307.2C144.985 306.648 145.071 306.072 145.066 305.493V282.453C145.045 280.9 144.571 279.387 143.701 278.101C134.15 265.686 127.291 251.416 123.562 236.202C122.504 230.752 119.863 225.736 115.967 221.781C110.772 216.571 107.856 209.512 107.86 202.154V175.872C107.836 171.576 108.83 167.336 110.761 163.499L112.297 160.427C114.189 156.576 115.181 152.345 115.198 148.054V110.251C115.209 77.643 141.64 51.211 174.249 51.2H192.737C203.157 25.414 228.186 8.53299 255.999 8.53299H230.399C202.587 8.53199 177.558 25.413 167.137 51.2H148.65C116.042 51.211 89.61 77.642 89.599 110.251V148.054C89.582 152.345 88.59 156.576 86.698 160.427L85.162 163.499C83.231 167.336 82.237 171.577 82.261 175.872V202.155C82.257 209.513 85.172 216.572 90.368 221.782C94.263 225.737 96.905 230.754 97.963 236.203C101.692 251.417 108.55 265.687 118.102 278.102C118.972 279.388 119.447 280.901 119.467 282.454V305.494C119.472 306.073 119.386 306.649 119.211 307.201C118.859 309.163 117.634 310.858 115.883 311.809L94.294 324.694L33.622 361.046C18.062 370.378 8.539 387.19 8.534 405.334V452.267H34.134V405.333H34.133Z" fill="white"/>
<path d="M68.267 443.733H179.2H443.733V460.8H179.2H68.267V443.733Z" fill="white"/>
<path d="M142.592 458.325C143.363 457.51 143.971 456.555 144.384 455.512C144.822 454.485 145.054 453.382 145.067 452.266C145.053 448.816 142.971 445.71 139.785 444.387C136.598 443.064 132.929 443.781 130.475 446.207L129.45 447.486C129.126 447.962 128.867 448.479 128.679 449.024C128.433 449.508 128.262 450.026 128.171 450.561C128.075 451.125 128.018 451.694 128 452.265C128.031 454.524 128.915 456.688 130.475 458.324C133.871 461.547 139.195 461.547 142.592 458.325Z" fill="#3051D3"/>
<path d="M482.763 353.725L401.059 304.82L400.805 283.116C411.103 269.73 418.462 254.323 422.401 237.9C423.128 234.093 424.961 230.586 427.672 227.817C434.443 220.99 438.252 211.77 438.272 202.154V175.871C438.295 170.251 436.993 164.706 434.472 159.683L432.968 156.679C431.647 153.995 430.952 151.046 430.935 148.054V110.25C430.894 72.942 400.66 42.708 363.352 42.667H350.297C337.343 16.568 310.739 0.044 281.602 0H230.402C201.265 0.043 174.66 16.567 161.707 42.667H148.65C111.342 42.708 81.108 72.942 81.067 110.25V148.054C81.053 151.02 80.369 153.944 79.067 156.608L77.567 159.616C75.023 164.655 73.709 170.225 73.73 175.87V202.153C73.75 211.769 77.56 220.99 84.334 227.816C87.047 230.593 88.881 234.11 89.605 237.924C93.455 254.119 100.728 269.302 110.934 282.453V304.824L29.226 353.732C11.149 364.657 0.073 384.213 0 405.333V452.266C0 456.979 3.821 460.799 8.533 460.799H102.4C107.113 460.799 110.933 456.978 110.933 452.266C110.933 447.553 107.112 443.733 102.4 443.733H76.8V417.792C76.74 399.794 86.199 383.104 101.671 373.909L150.509 344.589L207.163 443.733H170.667C165.954 443.733 162.134 447.554 162.134 452.266C162.134 456.979 165.955 460.799 170.667 460.799H221.844L221.867 460.803L221.895 460.799H290.107L290.135 460.803L290.158 460.799H503.468C508.181 460.799 512.001 456.978 512.001 452.266V405.333C511.926 384.208 500.845 364.649 482.763 353.725ZM403.914 326.42L389.085 341.249L370.733 330.232L390.651 318.281C391.026 318.55 391.331 318.89 391.733 319.129L403.914 326.42ZM435.2 443.733H304.837L361.491 344.588L410.321 373.904C425.797 383.099 435.259 399.79 435.2 417.792V443.733ZM196.379 317.05C196.54 316.956 196.655 316.815 196.812 316.717L241.055 335.678L220.346 356.384L173.465 330.807L196.379 317.05ZM315.176 316.722C315.303 316.801 315.396 316.916 315.526 316.992L338.536 330.807L291.655 356.384L270.946 335.678L315.176 316.722ZM251.738 375.467L240.466 360.401L256 344.867L271.534 360.401L260.262 375.467H251.738V375.467ZM283.728 372.594L284.1 372.966C286.777 375.643 290.897 376.237 294.221 374.424L338.632 350.195L291.743 432.251L274.164 385.373L283.728 372.594ZM217.779 374.425C221.103 376.237 225.223 375.644 227.9 372.967L228.272 372.595L237.836 385.375L220.257 432.253L173.368 350.197L217.779 374.425ZM253.382 392.533H258.618L277.818 443.733H234.182L253.382 392.533ZM363.35 59.733C391.236 59.765 413.835 82.363 413.867 110.25V148.054C413.891 153.668 415.191 159.203 417.667 164.242L419.242 167.384C420.554 170.02 421.226 172.927 421.205 175.872V202.155C421.197 207.247 419.184 212.132 415.601 215.751C410.522 220.883 407.071 227.4 405.68 234.484C402.156 248.618 395.725 261.862 386.797 273.371C384.988 276.056 384.015 279.217 384.001 282.454V302.368L354.152 320.277L324.268 302.337L324.259 275.858C335.961 260.52 344.237 242.85 348.53 224.041C349.436 219.375 351.7 215.08 355.038 211.695C362.68 204.094 366.964 193.752 366.934 182.974V152.642C366.928 146.337 365.46 140.118 362.646 134.475L360.884 130.954C359.253 127.683 358.403 124.079 358.401 120.425V76.8C358.384 71.055 357.721 65.33 356.423 59.733H363.35V59.733ZM230.4 17.067H281.6C314.574 17.104 341.296 43.826 341.333 76.8V120.425C341.339 126.73 342.807 132.949 345.621 138.592L347.383 142.113C349.014 145.384 349.864 148.988 349.866 152.642V182.975C349.881 189.232 347.392 195.235 342.953 199.646C337.246 205.394 333.367 212.702 331.803 220.65C327.946 237.089 320.644 252.522 310.378 265.929C308.321 268.809 307.21 272.257 307.199 275.796V301.575L256 323.517L204.8 301.575V275.796C204.783 272.217 203.646 268.734 201.55 265.834C191.316 252.453 184.038 237.053 180.196 220.651C178.63 212.696 174.744 205.381 169.029 199.63C164.6 195.222 162.117 189.225 162.133 182.976V152.642C162.136 148.986 162.987 145.38 164.62 142.109L166.374 138.597C169.19 132.953 170.659 126.733 170.666 120.426V76.801C170.704 43.825 197.426 17.104 230.4 17.067ZM106.325 234.508C104.936 227.415 101.485 220.89 96.404 215.75C92.819 212.132 90.803 207.247 90.796 202.154V175.871C90.777 172.902 91.462 169.97 92.796 167.317L94.367 164.171C96.825 159.153 98.112 153.642 98.133 148.054V110.25C98.165 82.364 120.763 59.765 148.65 59.733H155.578C154.281 65.33 153.617 71.055 153.6 76.8V120.425C153.597 124.081 152.746 127.687 151.113 130.958L149.359 134.47C146.543 140.114 145.074 146.334 145.067 152.641V182.974C145.039 193.76 149.329 204.109 156.98 211.712C160.31 215.093 162.568 219.382 163.472 224.041C167.756 242.832 176.03 260.482 187.734 275.795L187.697 302.358L157.849 320.277L128 302.368V282.454C127.968 279.1 126.924 275.834 125.004 273.083C116.168 261.66 109.807 248.524 106.325 234.508ZM120.238 319.146C120.65 318.901 120.962 318.554 121.346 318.279L141.267 330.232L122.915 341.249L108.086 326.42L120.238 319.146ZM92.88 359.279C72.386 371.671 59.827 393.843 59.733 417.792V443.733H17.067V405.333C17.122 390.203 25.057 376.194 38.004 368.367L92.989 335.456L107.834 350.301L92.88 359.279ZM494.933 443.733H452.266V417.792C452.172 393.84 439.609 371.667 419.112 359.275L404.165 350.301L419.011 335.455L473.983 368.357C486.937 376.185 494.876 390.197 494.933 405.332V443.733V443.733Z" fill="#3051D3"/>
</svg>
