<svg width="305" height="305" viewBox="0 0 305 305" fill="none" xmlns="http://www.w3.org/2000/svg">
<path d="M188.678 117.037C208.391 100.039 232.92 78.2819 232.92 44.6777V26.8066H152.5H72.0801V44.6777C72.0801 78.2819 96.6093 100.039 116.322 117.037C130.938 129.638 143.564 140.528 143.564 152.5C143.564 164.472 130.938 175.362 116.322 187.963C96.6093 204.961 72.0801 226.718 72.0801 260.322V278.193H152.5H232.92V260.322C232.92 226.718 208.391 204.961 188.678 187.963C174.062 175.362 161.436 164.472 161.436 152.5C161.436 140.528 174.062 129.638 188.678 117.037V117.037Z" fill="#3051D3" fill-opacity="0.5"/>
<path d="M192.028 208H152.5H112.972C100.232 219.174 90 232.195 90 248.868V265H152.5H215V248.868C215 232.195 204.768 219.174 192.028 208Z" fill="#3051D3"/>
<path d="M54.209 269.258V305H152.5H250.791V269.258H152.5H54.209Z" fill="#3051D3"/>
<path d="M152.5 0H54.209V35.7422H152.5H250.791V0H152.5Z" fill="#3051D3"/>
<path d="M152.5 269.258H250.791V305H152.5V269.258Z" fill="#3051D3"/>
<path d="M152.5 0H250.791V35.7422H152.5V0Z" fill="#3051D3"/>
<path d="M128.017 103.533C137.31 111.575 146.246 119.26 152.5 127.838C158.754 119.26 167.69 111.575 176.983 103.533C187.837 94.1753 199.537 84.3033 207.007 72.0801H152.5H97.9932C105.463 84.3033 117.157 94.1711 128.017 103.533Z" fill="#3051D3"/>
<path d="M176.983 103.533C187.837 94.1753 199.537 84.3033 207.007 72.0801H152.5V127.838C158.754 119.26 167.69 111.575 176.983 103.533Z" fill="#3051D3"/>
</svg>
