<svg width="329" height="329" viewBox="0 0 329 329" fill="none" xmlns="http://www.w3.org/2000/svg">
<g clip-path="url(#clip0)">
<path d="M216.879 22.7626V44.8866H197.602V22.7626C197.602 15.8806 191.999 10.2773 185.117 10.2773H145.065C138.183 10.2773 132.58 15.8806 132.58 22.7626V44.8866H113.302V22.7626C113.302 5.24596 127.555 -9 145.065 -9H185.117C202.634 -9 216.879 5.24596 216.879 22.7626Z" fill="#3051D3"/>
<path d="M216.88 22.7626V44.8866H197.602V22.7626C197.602 15.8806 191.999 10.2773 185.117 10.2773H167.189V-9H185.117C202.634 -9 216.88 5.24596 216.88 22.7626Z" fill="#3051D3"/>
<path d="M285.835 82.7023L262.104 320H72.2737L48.5433 82.7023L167.189 73.7062L285.835 82.7023Z" fill="#3051D3" fill-opacity="0.5"/>
<path d="M24.8129 35.2479H309.565V82.7023H24.8129V35.2479Z" fill="#3051D3"/>
<path d="M167.189 35.2479H309.565V82.7023H167.189V35.2479Z" fill="#3051D3"/>
<path d="M115.402 133.377H134.679V266.115H115.402V133.377Z" fill="#3051D3"/>
<path d="M157.55 133.376H176.828V266.113H157.55V133.376Z" fill="#3051D3"/>
<path d="M167.189 133.376H176.828V266.113H167.189V133.376Z" fill="#3051D3"/>
<path d="M199.699 133.377H218.976V266.115H199.699V133.377Z" fill="#3051D3"/>
</g>
<defs>
<clipPath id="clip0">
<rect width="329" height="329" fill="white"/>
</clipPath>
</defs>
</svg>
